<svg width="24" height="24" viewBox="0 0 24 24" fill="none" xmlns="http://www.w3.org/2000/svg">
<g clip-path="url(#clip0_140_3063)">
<path d="M21.0001 12.211C21.0001 11.5868 20.9495 10.9593 20.8416 10.3452H12.1807V13.8811H17.1404C16.9345 15.0215 16.2732 16.0303 15.3049 16.6714V18.9656H18.2639C20.0014 17.3664 21.0001 15.0046 21.0001 12.211Z" fill="#4285F4"/>
<path d="M12.18 21.1824C14.6565 21.1824 16.745 20.3693 18.2666 18.9658L15.3077 16.6715C14.4844 17.2316 13.4217 17.5487 12.1834 17.5487C9.78792 17.5487 7.7568 15.9326 7.02803 13.7598H3.97461V16.1249C5.53337 19.2256 8.70826 21.1824 12.18 21.1824Z" fill="#34A853"/>
<path d="M7.02485 13.7597C6.64022 12.6193 6.64022 11.3844 7.02485 10.244V7.87891H3.9748C2.67246 10.4735 2.67246 13.5303 3.9748 16.1248L7.02485 13.7597Z" fill="#FBBC04"/>
<path d="M12.18 6.45174C13.4891 6.4315 14.7544 6.92409 15.7024 7.82831L18.324 5.20676C16.664 3.64799 14.4608 2.79101 12.18 2.818C8.70825 2.818 5.53337 4.77489 3.97461 7.87892L7.02466 10.2441C7.75005 8.06786 9.78454 6.45174 12.18 6.45174Z" fill="#EA4335"/>
</g>
<defs>
<clipPath id="clip0_140_3063">
<rect width="18" height="18.3644" fill="white" transform="translate(3 2.81787)"/>
</clipPath>
</defs>
</svg>
