<svg xmlns="http://www.w3.org/2000/svg" xmlns:xlink="http://www.w3.org/1999/xlink" width="1049" height="1080" fill="none" xmlns:v="https://vecta.io/nano"><use xlink:href="#B" fill="url(#pattern0)"/><use xlink:href="#B" fill="#080808" fill-opacity=".4"/><use xlink:href="#B" fill="url(#paint0_linear_177_4529)" fill-opacity=".6"/><path d="M235.52 83.228l.315.255.315-.255C299.505 31.868 379.93.5 468.5.5h580v1083H99.603V958.973l1.848-429.683v-.091l1.847-429.421c0-48.802-39.665-91.039-87.107-98.95C99.725 4.269 175.648 34.636 235.52 83.228z" stroke="#fff" stroke-opacity=".08"/><defs ><path id="B" d="M235.835 82.84C299.274 31.412 379.809 0 468.5 0H1049v1084H99.103V958.973l3.695-859.195C102.798 45.885 54.141 0 .249 0c89.923 0 171.84 31.104 235.586 82.84z"/></defs></svg>