<svg width="1049" height="1080" viewBox="0 0 1049 1080" fill="none" xmlns="http://www.w3.org/2000/svg" xmlns:xlink="http://www.w3.org/1999/xlink">
<path d="M235.835 82.84C299.274 31.4115 379.809 0 468.5 0H1049V1084H99.1029V958.973C99.1029 672.079 102.798 386.435 102.798 99.7776C102.798 45.8854 54.1413 0 0.249023 0C90.1722 0 172.089 31.1035 235.835 82.84Z" fill="url(#pattern0)"/>
<path d="M235.835 82.84C299.274 31.4115 379.809 0 468.5 0H1049V1084H99.1029V958.973C99.1029 672.079 102.798 386.435 102.798 99.7776C102.798 45.8854 54.1413 0 0.249023 0C90.1722 0 172.089 31.1035 235.835 82.84Z" fill="#080808" fill-opacity="0.4"/>
<path d="M235.835 82.84C299.274 31.4115 379.809 0 468.5 0H1049V1084H99.1029V958.973C99.1029 672.079 102.798 386.435 102.798 99.7776C102.798 45.8854 54.1413 0 0.249023 0C90.1722 0 172.089 31.1035 235.835 82.84Z" fill="url(#paint0_linear_177_4529)" fill-opacity="0.6"/>
<path d="M235.52 83.2283L235.835 83.4838L236.15 83.2284C299.505 31.8679 379.93 0.5 468.5 0.5H1048.5V1083.5H99.6029V958.973C99.6029 815.528 100.527 672.395 101.451 529.29L101.451 529.199C102.375 386.125 103.298 243.078 103.298 99.7776C103.298 50.9753 63.6334 8.73856 16.1907 0.827638C99.7245 4.26899 175.648 34.6362 235.52 83.2283Z" stroke="white" stroke-opacity="0.08"/>
</svg>
