<svg width="300" height="540" viewBox="0 0 300 540" fill="none" xmlns="http://www.w3.org/2000/svg">
<path d="M31.1034 0C11.1187 0 1.00024 3.03235 1.00024 9.60229C1.00024 15.9196 12.131 19.2045 34.1394 19.7099C56.1478 19.7099 69.3023 21.7314 73.3499 26.2798C77.3974 30.5756 79.4209 45.2316 79.4209 70.248V245.363C79.4209 323.191 80.433 374.74 82.4568 399.757C84.4805 424.773 89.7929 447.263 98.6469 467.478C119.643 515.994 164.672 540 233.986 540H300V0H185.668H146.964H62.4719H31.1034Z" fill="white" fill-opacity="0.01"/>
<path d="M34.1279 20.2099H34.1394C45.1332 20.2099 53.8927 20.7151 60.399 21.7826C63.652 22.3163 66.3272 22.9883 68.4304 23.8008C70.5382 24.6151 72.0379 25.5577 72.9763 26.6122L72.9811 26.6176L72.9859 26.6227C73.923 27.6173 74.7801 29.2564 75.5298 31.5967C76.2768 33.9285 76.9042 36.9143 77.4079 40.5621C78.4152 47.8573 78.9209 57.7494 78.9209 70.248V245.363C78.9209 323.188 79.9327 374.757 81.9584 399.797C83.9859 424.859 89.3089 447.403 98.188 467.676C108.73 492.035 125.312 510.252 147.961 522.373C170.601 534.49 199.275 540.5 233.986 540.5H300H300.5V540V0V-0.5H300H185.668H146.964H62.4719H31.1034C21.0991 -0.5 13.5107 0.257446 8.40771 1.86041C5.85538 2.66217 3.88547 3.68726 2.54758 4.96924C1.19583 6.26447 0.500244 7.81342 0.500244 9.60229C0.500244 11.3513 1.27902 12.8716 2.75555 14.1533C4.21814 15.4227 6.37256 16.4673 9.17188 17.3141C14.7724 19.0084 23.1124 19.9568 34.1279 20.2099Z" stroke="white" stroke-opacity="0.1"/>
</svg>
