<svg width="148" height="32" viewBox="0 0 148 32" fill="none" xmlns="http://www.w3.org/2000/svg">
<g clip-path="url(#clip0_3354_6969)">
<path d="M34.4289 16.1267C34.4289 18.5271 33.4857 20.4628 31.6062 21.9411C30.128 23.1096 28.5019 23.6938 26.7281 23.6938C24.6234 23.6938 22.8002 22.9336 21.2657 21.4202C19.7311 19.9067 18.9639 18.1188 18.9639 16.0563C18.9639 13.9023 19.7311 12.0722 21.2657 10.5587C22.8002 9.04532 24.6585 8.29213 26.8336 8.29213C28.9172 8.29213 30.7052 9.0594 32.1975 10.5939C33.6827 12.1355 34.4289 13.9798 34.4289 16.1267ZM29.3537 16.1619C29.3537 13.3814 29.1636 11.4738 28.7835 10.4461C28.3611 9.30577 27.6783 8.72856 26.7421 8.72856C25.8763 8.72856 25.1935 9.32689 24.7008 10.5306C24.208 11.7272 23.9687 13.3814 23.9687 15.4932C23.9687 18.4285 24.2573 20.5121 24.8345 21.751C25.2991 22.7365 25.9608 23.2292 26.8055 23.2292C27.8543 23.2292 28.5442 22.6027 28.875 21.3498C29.1988 20.1531 29.3537 18.4285 29.3537 16.1619Z" fill="white" fill-opacity="0.9"/>
<path d="M52.5897 15.712C52.5897 17.9927 51.9421 19.8933 50.6469 21.4137C49.3517 22.9342 47.7327 23.6944 45.7899 23.6944C44.3117 23.6944 43.1291 23.1102 42.2351 21.9417V29.4806C42.2351 30.1071 42.2703 30.5013 42.3337 30.6702C42.397 30.8392 42.5519 30.9448 42.7842 30.987C43.0165 31.0292 43.6077 31.0644 44.558 31.0856C44.8044 31.0856 44.9241 31.1911 44.9241 31.4093C44.9241 31.5783 44.7762 31.6628 44.4876 31.6628C44.4665 31.6628 44.3539 31.6628 44.1498 31.6628C43.9456 31.6628 43.7556 31.6628 43.5796 31.6628H40.1867C39.9403 31.6628 39.6025 31.6628 39.1801 31.6628C38.7507 31.6628 38.258 31.6628 37.7019 31.6628H36.0195C35.5268 31.6628 35.2804 31.5712 35.2804 31.3953C35.2804 31.2404 35.6817 31.163 36.4912 31.163C37.1599 31.163 37.54 31.0926 37.6174 30.9588C37.6949 30.8251 37.7371 30.3957 37.7371 29.6777V12.7345C37.7371 12.5796 37.7371 12.4247 37.7371 12.2628C37.7371 12.1291 37.7371 12.0376 37.7371 11.9954V11.0521C37.7582 10.5805 37.5822 10.2919 37.2021 10.1793C37.0191 10.1089 36.639 10.0807 36.0618 10.0807H35.4071C35.2241 10.0807 35.1396 10.0103 35.1396 9.87657C35.1396 9.69355 35.2734 9.6302 35.5409 9.67244C37.9201 9.60204 40.0037 9.15858 41.7987 8.32796C41.8902 8.4617 41.9465 8.64472 41.9676 8.86997L42.038 9.70763L42.0732 10.2778C42.6786 9.53165 43.2699 9.01779 43.8541 8.74327C44.4384 8.46874 45.1915 8.32796 46.1066 8.32796C47.965 8.32796 49.5136 9.02483 50.7454 10.4256C51.9702 11.8264 52.5897 13.5862 52.5897 15.712ZM47.6482 15.5783C47.6482 11.3055 46.6909 9.17266 44.7762 9.17266C43.9315 9.17266 43.2135 9.57389 42.6363 10.3834C42.3689 10.7635 42.2351 11.4041 42.2351 12.298V18.9078C42.2351 20.3368 42.4111 21.3082 42.7701 21.8291C43.2839 22.5893 43.9738 22.9694 44.8396 22.9694C46.712 22.9553 47.6482 20.4987 47.6482 15.5783Z" fill="white" fill-opacity="0.9"/>
<path d="M88.792 10.8129C88.792 11.4605 88.602 11.9955 88.2218 12.4108C87.8417 12.8261 87.349 13.0303 86.7436 13.0303C85.5329 13.0303 84.9275 12.4671 84.9275 11.3479C84.9275 10.9678 85.0753 10.5877 85.3639 10.2076C85.4343 10.1161 85.4625 10.0386 85.4625 9.97528C85.4625 9.77114 85.3217 9.67259 85.0331 9.67259C84.2799 9.67259 83.7027 10.2639 83.3085 11.4535C83.0903 12.1222 82.9777 13.7694 82.9777 16.3809V18.8305V21.7799C82.9777 22.3853 83.2803 22.7091 83.8857 22.7513C84.2447 22.7725 84.6671 22.7865 85.1668 22.7865C85.4132 22.8076 85.5329 22.8851 85.5329 23.0188C85.5329 23.2018 85.4343 23.2863 85.2302 23.2863H84.5544C84.3503 23.2863 83.3789 23.2863 81.6261 23.2863C81.7177 23.2863 81.2108 23.2863 80.1127 23.2863H78.4656H77.1844C76.9592 23.2863 76.6987 23.2863 76.4101 23.2863C76.1638 23.2863 76.0371 23.2159 76.0371 23.0681C76.0371 22.9203 76.1919 22.8499 76.5087 22.8499C77.4308 22.8288 77.9799 22.7302 78.1699 22.5613C78.36 22.3923 78.4585 21.8926 78.4585 21.069L78.4233 12.0096C78.4233 11.2494 78.3177 10.7214 78.1066 10.4328C77.8954 10.1442 77.4167 9.9612 76.6776 9.89785C76.0934 9.85561 75.7625 9.82745 75.6851 9.80634C75.6077 9.78522 75.5654 9.71483 75.5654 9.58812C75.5654 9.46142 75.6569 9.39807 75.8329 9.39807C76.0371 9.39807 76.2271 9.39807 76.4031 9.39807H77.0718C78.7964 9.39807 80.6618 9.03907 82.6539 8.32108C82.7665 8.77158 82.8228 9.28544 82.8228 9.86969V11.2846C83.2522 10.2005 83.7168 9.43326 84.2166 8.9898C84.7234 8.54633 85.378 8.32108 86.1875 8.32108C86.9478 8.32108 87.5742 8.55337 88.0529 9.02499C88.5456 9.50365 88.792 10.102 88.792 10.8129Z" fill="white" fill-opacity="0.9"/>
<path d="M103.483 19.1542C103.483 19.6469 103.194 20.2945 102.61 21.104C101.357 22.8286 99.717 23.6944 97.6968 23.6944C95.4302 23.6944 93.5719 22.9764 92.1148 21.5405C90.6576 20.1045 89.9326 18.2673 89.9326 16.0288C89.9326 13.8326 90.6365 12.0024 92.0514 10.5312C93.4663 9.06003 95.2261 8.32796 97.3308 8.32796C98.7668 8.32796 99.9845 8.64472 100.998 9.2712C102.117 9.96808 102.849 10.9676 103.18 12.2628C103.272 12.6641 103.335 13.1498 103.384 13.7059C102.871 13.7622 100.794 13.8115 97.1618 13.8396C96.5987 13.8396 95.8948 13.8607 95.043 13.91C94.9727 14.7125 94.9445 15.3953 94.9445 15.9514C94.9445 18.5629 95.4935 20.4212 96.5917 21.5123C97.2393 22.1599 98.0347 22.4837 98.9779 22.4837C99.7593 22.4837 100.519 22.2162 101.252 21.6742C101.977 21.1392 102.533 20.4423 102.913 19.5906C103.089 19.1612 103.237 18.95 103.349 18.95C103.441 18.9571 103.483 19.0204 103.483 19.1542ZM99.2454 13.2694C99.2665 11.5519 99.1469 10.3623 98.8794 9.69355C98.6119 9.02483 98.1403 8.69399 97.4645 8.69399C96.0989 8.69399 95.3105 10.2215 95.1134 13.2694C95.5851 13.2694 96.5705 13.2694 98.0699 13.2694C98.5204 13.2694 98.9146 13.2694 99.2454 13.2694Z" fill="white" fill-opacity="0.9"/>
<path d="M119.124 8.9333C119.124 9.08816 119.082 9.18671 118.99 9.2219C118.899 9.2571 118.589 9.27118 118.047 9.27118C117.442 9.27118 117.083 9.30637 116.97 9.36972L116.766 9.73576L116.365 10.9113C116.182 11.4463 115.78 12.5373 115.154 14.1704C115.112 14.3042 114.619 15.6838 113.676 18.3095C111.458 24.518 110.022 28.2769 109.375 29.5721C108.565 31.1841 107.538 31.9936 106.278 31.9936C105.56 31.9936 104.982 31.7824 104.546 31.353C104.11 30.9236 103.891 30.3675 103.891 29.6706C103.891 28.5725 104.497 28.0235 105.707 28.0235C106.109 28.0235 106.432 28.1572 106.686 28.4247C106.798 28.5373 106.989 28.8471 107.256 29.368C107.411 29.5932 107.629 29.7058 107.897 29.7058C108.347 29.7058 108.776 29.3328 109.192 28.5796C109.607 27.8264 110.17 26.4115 110.888 24.3279C110.712 23.9689 110.36 23.1735 109.846 21.9417C109.171 20.2382 108.277 18.0068 107.15 15.2474C106.883 14.5787 106.278 13.1075 105.341 10.8409C105.025 10.0455 104.757 9.57386 104.532 9.42604C104.307 9.27822 103.793 9.18671 102.983 9.16559C102.716 9.16559 102.582 9.08816 102.582 8.9333C102.582 8.77843 102.716 8.701 102.983 8.701H103.589C103.927 8.701 104.426 8.701 105.102 8.701C105.771 8.701 106.292 8.701 106.651 8.701H110.755C110.888 8.701 111.043 8.701 111.226 8.701C111.472 8.701 111.592 8.77843 111.592 8.9333C111.592 9.13743 111.254 9.2219 110.586 9.20078C109.91 9.17967 109.579 9.32749 109.579 9.63721C109.579 9.86246 109.67 10.2074 109.846 10.679C110.093 11.3055 110.227 11.6786 110.248 11.7912C111.346 14.8391 112.24 17.1621 112.937 18.7529C115.02 13.4384 116.062 10.4115 116.062 9.67241C116.062 9.42604 115.802 9.30637 115.288 9.30637C114.211 9.30637 113.676 9.20782 113.676 9.00369C113.676 8.79955 113.81 8.701 114.077 8.701C114.302 8.701 114.528 8.71508 114.753 8.7362C115.175 8.77843 115.759 8.80659 116.498 8.80659C116.59 8.80659 116.921 8.78547 117.491 8.75732C118.061 8.72212 118.434 8.70804 118.617 8.70804H118.821C119.018 8.701 119.124 8.77843 119.124 8.9333Z" fill="white" fill-opacity="0.9"/>
<path d="M136.214 23.0535C136.214 23.2366 135.933 23.321 135.377 23.321C135.335 23.321 135.039 23.321 134.504 23.321C133.969 23.321 133.181 23.321 132.153 23.321H131.076H128.183C127.866 23.321 127.711 23.2366 127.711 23.0676C127.711 22.9198 127.845 22.8494 128.105 22.8494H128.373C128.943 22.8494 129.281 22.779 129.379 22.6312C129.478 22.4834 129.527 21.9836 129.527 21.1248V14.5995C129.527 12.1921 129.372 10.7491 129.063 10.2704C128.795 9.86217 128.324 9.65804 127.641 9.65804C126.958 9.65804 126.395 9.86921 125.951 10.2986C125.508 10.7209 125.29 11.263 125.29 11.9106V22.0751C125.332 22.3426 125.43 22.5186 125.578 22.596C125.726 22.6734 126.085 22.7227 126.669 22.7438C126.845 22.7438 126.937 22.8142 126.937 22.9409C126.937 23.0747 126.859 23.1521 126.705 23.1732C126.55 23.1943 125.987 23.2084 125.022 23.2084C124.058 23.2084 123.262 23.2225 122.636 23.2436C121.404 23.2858 120.144 23.314 118.87 23.314C118.602 23.314 118.469 23.2366 118.469 23.0817C118.469 22.9057 118.814 22.8142 119.496 22.8142C120.179 22.8142 120.58 22.6805 120.693 22.413L120.792 21.9414V14.2335C120.792 12.0654 120.771 10.9321 120.721 10.8477C120.651 10.5098 120.348 10.3408 119.813 10.3408C119.525 10.3408 119.264 10.3408 119.039 10.3408H118.673C118.314 10.3408 118.131 10.2704 118.131 10.1226C118.131 9.9748 118.265 9.89033 118.532 9.86921C121.031 9.75658 123.03 9.22865 124.522 8.2854C124.698 8.19389 124.825 8.15166 124.888 8.15166C125.064 8.15166 125.156 8.33468 125.156 8.68663C125.156 9.67211 125.156 10.3127 125.156 10.6013C126.346 9.05267 127.866 8.27836 129.731 8.27836C131.66 8.27836 132.913 8.94708 133.497 10.2986C133.744 10.8617 133.891 11.4882 133.948 12.1851C134.004 12.882 134.032 14.318 134.032 16.486V21.3642C134.032 22.061 134.089 22.4693 134.201 22.589C134.314 22.7157 134.68 22.772 135.292 22.772C135.905 22.7861 136.214 22.8776 136.214 23.0535Z" fill="white" fill-opacity="0.9"/>
<path d="M147.371 18.6188C147.371 20.1182 146.914 21.336 145.999 22.2651C145.084 23.1943 143.901 23.6589 142.444 23.6589C141.726 23.6589 140.881 23.4759 139.896 23.1239C139.093 22.8353 138.565 22.6875 138.319 22.6875C137.897 22.6875 137.615 22.8494 137.481 23.1732C137.348 23.497 137.249 23.6589 137.179 23.6589C137.045 23.6589 136.975 23.5815 136.975 23.4196C136.975 23.2858 136.996 23.0676 137.031 22.779C137.087 22.3496 137.115 21.6035 137.115 20.5476C137.115 20.5053 137.115 20.3927 137.115 20.2097C137.115 20.0267 137.115 19.7803 137.115 19.4635V18.8863C137.115 18.64 137.172 18.5133 137.284 18.5133C137.418 18.5133 137.517 18.6822 137.587 19.0201C137.791 20.2097 138.361 21.2022 139.298 21.9976C140.234 22.7931 141.283 23.1943 142.444 23.1943C143.183 23.1943 143.774 22.962 144.232 22.5045C144.689 22.0469 144.915 21.4486 144.915 20.7024C144.915 20.1182 144.704 19.6254 144.274 19.2242C143.957 18.9356 143.12 18.5625 141.754 18.112C140.072 17.5489 138.854 16.8731 138.108 16.0777C137.355 15.2823 136.982 14.2687 136.982 13.0368C136.982 11.7134 137.432 10.5942 138.326 9.67208C139.22 8.74995 140.318 8.29241 141.62 8.29241C142.113 8.29241 142.965 8.44727 144.176 8.76403C144.359 8.80626 144.492 8.83442 144.577 8.83442C145.07 8.83442 145.443 8.53174 145.689 7.92637C145.731 7.81374 145.788 7.75743 145.858 7.75743C146.013 7.75743 146.09 7.89117 146.09 8.15866L146.055 8.79923C146.034 8.89073 146.02 9.0456 146.02 9.27085C146.02 10.193 146.076 11.1292 146.189 12.0936V12.2625C146.189 12.4455 146.118 12.53 145.985 12.53C145.872 12.53 145.781 12.4314 145.717 12.2273C145.07 9.93957 143.746 8.79923 141.747 8.79923C141.008 8.79923 140.396 9.00336 139.917 9.40459C139.431 9.80582 139.192 10.3267 139.192 10.9532C139.192 11.5375 139.396 11.995 139.797 12.3329C140.199 12.6708 140.987 13.0509 142.148 13.4732C144.19 14.1912 145.569 14.9092 146.287 15.6272C147.012 16.3452 147.371 17.3377 147.371 18.6188Z" fill="white" fill-opacity="0.9"/>
<path d="M14.6833 21.9134V15.2755H14.6903V2.34452C14.6903 1.07747 15.711 0.0638358 16.971 0.02864C14.9297 0.02864 13.0713 0.739595 11.6142 1.92921C10.1571 0.725516 8.28472 0.00752258 6.23633 0.00752258C7.50338 0.0356792 8.51701 1.05636 8.51701 2.3234V15.74C8.51701 20.6745 12.5293 24.6516 17.4286 24.6516C15.9152 24.6586 14.6833 23.4268 14.6833 21.9134Z" fill="white" fill-opacity="0.9"/>
<path d="M0 6.18823C0 2.7672 2.71711 0.0219269 6.13814 0.0219269H0V6.18823Z" fill="white" fill-opacity="0.9"/>
<path d="M17.0273 0.0150452C20.4202 0.0150452 23.2288 2.76032 23.2288 6.18135V0.0150452H17.0273Z" fill="white" fill-opacity="0.9"/>
<path d="M74.3832 18.1962C74.2917 14.93 71.4197 12.3044 68.1535 12.3044H66.9428C70.5187 12.3044 73.3555 9.40431 73.1091 5.82842C73.0246 2.47074 70.1245 0 66.7316 0H64.4509C65.7461 0 66.7316 1.04883 66.7316 2.28069V9.93225C66.7316 11.1993 65.8095 12.3044 64.5706 12.3044C63.2121 12.4311 62.1632 11.3823 62.1632 10.0519V8.41883C62.1632 8.10207 62.1421 7.79235 62.1069 7.48262V2.32996C62.1069 1.06291 63.1276 0.0492741 64.3876 0.0140783C62.3603 0.0140783 60.516 0.717994 59.066 1.89353C57.6089 0.710955 55.7365 0 53.681 0C54.9129 0 56.0251 1.04883 56.0251 2.28069V7.32776C55.9758 7.70084 55.9406 8.08095 55.9406 8.4681V21.9199C55.9406 23.4333 54.7087 24.6652 53.1953 24.6652C55.4267 24.6652 57.4681 23.8346 59.0308 22.476C60.5864 23.8487 62.6137 24.6793 64.8451 24.6793C63.4232 24.6793 62.1632 23.4122 62.1632 21.9059V15.3383C62.1632 13.9164 63.3388 12.5649 64.7818 12.5649C66.3515 12.5649 67.5904 13.7967 67.5904 15.282V21.9129C67.5904 23.4263 66.4501 24.6863 64.8451 24.6863H68.238C71.7858 24.6793 74.5944 21.7158 74.3832 18.1962Z" fill="white" fill-opacity="0.9"/>
</g>
<defs>
<clipPath id="clip0_3354_6969">
<rect width="147.372" height="32" fill="white"/>
</clipPath>
</defs>
</svg>
