<svg width="1920" height="879" viewBox="0 0 1920 879" fill="none" xmlns="http://www.w3.org/2000/svg">
<path d="M1216.01 817.431V675.184H1216.17V398.081C1216.17 370.928 1238.04 349.207 1265.04 348.453L1035 348C1062.15 348.603 1083.87 370.476 1083.87 397.628V792.5C1083.87 898.243 1169.86 876.11 1274.84 876.11C1242.41 876.26 1216.01 849.862 1216.01 817.431Z" stroke="#212121"/>
<path d="M1266.25 348.156C1338.95 348.156 1399.14 406.986 1399.14 480.297V348.156H1266.25Z" stroke="#212121"/>
<path d="M1699.54 348H-711L1399.9 60.1992C1398.77 23.9942 1357.87 6.45729 1337.57 2.21444C1406.13 5.60846 1465.31 39.928 1486.32 56.6636C1506.39 40.8709 1564.24 7.87147 1635.08 2.21444C1723.62 -4.85684 1883 14.2356 1883 187.482C1883 326.079 1769.73 348 1699.54 348Z" fill="#080808"/>
<path d="M-702 347.83C-221.643 347.83 752.986 347.83 1700.38 347.83C1770.58 347.83 1883.87 325.92 1883.87 187.391C1883.87 14.2292 1724.47 -4.85397 1635.91 2.21385C1565.07 7.86811 1507.21 40.8514 1487.14 56.6363C1466.12 39.909 1406.94 5.60621 1338.36 2.21385C1358.67 6.45462 1399.57 23.983 1400.71 60.1702L1398.58 608.633C1398.58 634.313 1383.7 688.358 1324.19 699.101C1357.02 698.866 1435.28 686.096 1485.72 636.904C1506.5 657.166 1558.69 703.342 1689.05 699.808C1813.69 696.429 1904.41 682.138 1920 512.511" stroke="#212121"/>
</svg>
