<svg width="111" height="24" viewBox="0 0 111 24" fill="none" xmlns="http://www.w3.org/2000/svg">
<g clip-path="url(#clip0_402_936)">
<path d="M25.8214 12.0951C25.8214 13.8953 25.114 15.3471 23.7044 16.4558C22.5957 17.3322 21.3762 17.7704 20.0458 17.7704C18.4673 17.7704 17.0999 17.2002 15.949 16.0651C14.7981 14.9301 14.2227 13.5891 14.2227 12.0423C14.2227 10.4268 14.7981 9.05414 15.949 7.91907C17.0999 6.78401 18.4937 6.21912 20.125 6.21912C21.6877 6.21912 23.0286 6.79457 24.1479 7.94547C25.2618 9.10165 25.8214 10.4848 25.8214 12.0951ZM22.015 12.1214C22.015 10.0361 21.8725 8.60539 21.5874 7.8346C21.2706 6.97935 20.7585 6.54644 20.0564 6.54644C19.407 6.54644 18.8949 6.99518 18.5253 7.89796C18.1558 8.79545 17.9763 10.0361 17.9763 11.6199C17.9763 13.8214 18.1927 15.3841 18.6256 16.3133C18.9741 17.0524 19.4703 17.4219 20.1039 17.4219C20.8905 17.4219 21.4079 16.9521 21.656 16.0123C21.8989 15.1149 22.015 13.8214 22.015 12.1214Z" fill="white" fill-opacity="0.2"/>
<path d="M39.442 11.784C39.442 13.4945 38.9563 14.92 37.9849 16.0603C37.0135 17.2007 35.7993 17.7708 34.3422 17.7708C33.2335 17.7708 32.3466 17.3326 31.6761 16.4563V22.1105C31.6761 22.5803 31.7025 22.876 31.75 23.0027C31.7975 23.1294 31.9137 23.2086 32.0879 23.2403C32.2621 23.2719 32.7056 23.2983 33.4183 23.3142C33.6031 23.3142 33.6928 23.3934 33.6928 23.557C33.6928 23.6837 33.5819 23.7471 33.3655 23.7471C33.3496 23.7471 33.2652 23.7471 33.1121 23.7471C32.959 23.7471 32.8164 23.7471 32.6844 23.7471H30.1398C29.955 23.7471 29.7016 23.7471 29.3848 23.7471C29.0628 23.7471 28.6932 23.7471 28.2762 23.7471H27.0144C26.6449 23.7471 26.4601 23.6784 26.4601 23.5465C26.4601 23.4303 26.761 23.3722 27.3681 23.3722C27.8697 23.3722 28.1548 23.3194 28.2128 23.2191C28.2709 23.1188 28.3026 22.7968 28.3026 22.2583V9.55086C28.3026 9.43471 28.3026 9.31856 28.3026 9.19714C28.3026 9.09683 28.3026 9.0282 28.3026 8.99652V8.28909C28.3184 7.93537 28.1864 7.71892 27.9013 7.63445C27.7641 7.58165 27.479 7.56053 27.0461 7.56053H26.5551C26.4178 7.56053 26.3545 7.50774 26.3545 7.40743C26.3545 7.27017 26.4548 7.22265 26.6554 7.25433C28.4398 7.20154 30.0025 6.86894 31.3488 6.24597C31.4174 6.34628 31.4596 6.48354 31.4755 6.65248L31.5283 7.28073L31.5547 7.70836C32.0087 7.14874 32.4522 6.76335 32.8903 6.55745C33.3285 6.35156 33.8934 6.24597 34.5797 6.24597C35.9735 6.24597 37.1349 6.76863 38.0588 7.81922C38.9774 8.86982 39.442 10.1897 39.442 11.784ZM35.7359 11.6837C35.7359 8.47914 35.0179 6.8795 33.5819 6.8795C32.9484 6.8795 32.4099 7.18042 31.977 7.78755C31.7764 8.07263 31.6761 8.55305 31.6761 9.22353V14.1809C31.6761 15.2526 31.8081 15.9811 32.0773 16.3718C32.4627 16.942 32.9801 17.2271 33.6294 17.2271C35.0338 17.2165 35.7359 15.374 35.7359 11.6837Z" fill="white" fill-opacity="0.2"/>
<path d="M66.5938 8.10974C66.5938 8.59544 66.4512 8.99667 66.1661 9.30815C65.881 9.61964 65.5115 9.77274 65.0575 9.77274C64.1494 9.77274 63.6954 9.35039 63.6954 8.51097C63.6954 8.22589 63.8063 7.9408 64.0227 7.65571C64.0755 7.58708 64.0966 7.52901 64.0966 7.4815C64.0966 7.32839 63.991 7.25448 63.7746 7.25448C63.2097 7.25448 62.7768 7.69795 62.4811 8.59016C62.3175 9.0917 62.233 10.3271 62.233 12.2857V14.1229V16.335C62.233 16.789 62.46 17.0319 62.914 17.0635C63.1833 17.0794 63.5001 17.0899 63.8749 17.0899C64.0597 17.1058 64.1494 17.1638 64.1494 17.2642C64.1494 17.4014 64.0755 17.4648 63.9224 17.4648H63.4156C63.2625 17.4648 62.5339 17.4648 61.2194 17.4648C61.288 17.4648 60.9079 17.4648 60.0843 17.4648H58.8489H57.8881C57.7191 17.4648 57.5238 17.4648 57.3074 17.4648C57.1226 17.4648 57.0275 17.412 57.0275 17.3011C57.0275 17.1902 57.1437 17.1374 57.3813 17.1374C58.0729 17.1216 58.4847 17.0477 58.6272 16.921C58.7697 16.7943 58.8436 16.4195 58.8436 15.8018L58.8173 9.00723C58.8173 8.43706 58.7381 8.04111 58.5797 7.82465C58.4213 7.6082 58.0623 7.47094 57.508 7.42342C57.0698 7.39175 56.8216 7.37063 56.7636 7.35479C56.7055 7.33895 56.6738 7.28616 56.6738 7.19113C56.6738 7.0961 56.7425 7.04859 56.8744 7.04859C57.0275 7.04859 57.1701 7.04859 57.3021 7.04859H57.8036C59.0971 7.04859 60.4961 6.77934 61.9902 6.24084C62.0746 6.57872 62.1169 6.96412 62.1169 7.4023V8.46346C62.4389 7.65044 62.7873 7.07498 63.1622 6.74238C63.5423 6.40978 64.0333 6.24084 64.6404 6.24084C65.2106 6.24084 65.6804 6.41506 66.0394 6.76878C66.409 7.12778 66.5938 7.57652 66.5938 8.10974Z" fill="white" fill-opacity="0.2"/>
<path d="M77.612 14.3656C77.612 14.7352 77.3955 15.2209 76.9574 15.828C76.0176 17.1215 74.7875 17.7708 73.2724 17.7708C71.5724 17.7708 70.1786 17.2323 69.0858 16.1553C67.993 15.0784 67.4492 13.7004 67.4492 12.0216C67.4492 10.3744 67.9772 9.0018 69.0383 7.89841C70.0995 6.79503 71.4193 6.24597 72.9978 6.24597C74.0748 6.24597 74.9881 6.48354 75.7484 6.95341C76.5878 7.47606 77.1369 8.22574 77.385 9.19714C77.4536 9.49806 77.5011 9.86234 77.5381 10.2794C77.1527 10.3216 75.5953 10.3586 72.8711 10.3797C72.4488 10.3797 71.9208 10.3956 71.282 10.4325C71.2292 11.0344 71.2081 11.5465 71.2081 11.9635C71.2081 13.9222 71.6199 15.3159 72.4435 16.1342C72.9292 16.6199 73.5258 16.8628 74.2332 16.8628C74.8192 16.8628 75.3894 16.6622 75.9384 16.2557C76.4822 15.8544 76.8993 15.3318 77.1844 14.693C77.3163 14.3709 77.4272 14.2125 77.5117 14.2125C77.5803 14.2178 77.612 14.2653 77.612 14.3656ZM74.4338 9.95209C74.4497 8.66392 74.3599 7.77171 74.1593 7.27017C73.9587 6.76863 73.605 6.5205 73.0981 6.5205C72.0739 6.5205 71.4826 7.66612 71.3348 9.95209C71.6885 9.95209 72.4277 9.95209 73.5522 9.95209C73.89 9.95209 74.1857 9.95209 74.4338 9.95209Z" fill="white" fill-opacity="0.2"/>
<path d="M89.3431 6.69998C89.3431 6.81612 89.3114 6.89003 89.2428 6.91643C89.1741 6.94283 88.9418 6.95339 88.5353 6.95339C88.0813 6.95339 87.812 6.97978 87.7276 7.0273L87.5745 7.30182L87.2735 8.18348C87.1363 8.58471 86.8354 9.40301 86.3655 10.6278C86.3338 10.7281 85.9643 11.7629 85.2568 13.7321C83.5938 18.3885 82.5168 21.2077 82.0311 22.1791C81.424 23.3881 80.6532 23.9952 79.7082 23.9952C79.1697 23.9952 78.7368 23.8368 78.4095 23.5148C78.0822 23.1927 77.9185 22.7756 77.9185 22.253C77.9185 21.4294 78.3725 21.0176 79.2806 21.0176C79.5815 21.0176 79.8243 21.1179 80.0144 21.3185C80.0989 21.403 80.2414 21.6353 80.442 22.026C80.5582 22.1949 80.7218 22.2794 80.9225 22.2794C81.2603 22.2794 81.5824 21.9996 81.8939 21.4347C82.2053 20.8698 82.6277 19.8086 83.1662 18.246C83.0342 17.9767 82.7702 17.3801 82.3848 16.4562C81.878 15.1786 81.2075 13.5051 80.3628 11.4356C80.1622 10.934 79.7082 9.83064 79.006 8.13068C78.7685 7.53412 78.5679 7.1804 78.3989 7.06953C78.23 6.95867 77.8446 6.89003 77.2375 6.8742C77.0368 6.8742 76.9365 6.81612 76.9365 6.69998C76.9365 6.58383 77.0368 6.52576 77.2375 6.52576H77.6915C77.9449 6.52576 78.3197 6.52576 78.8265 6.52576C79.3281 6.52576 79.7188 6.52576 79.988 6.52576H83.0659C83.1662 6.52576 83.2823 6.52576 83.4196 6.52576C83.6044 6.52576 83.6941 6.58383 83.6941 6.69998C83.6941 6.85308 83.4407 6.91643 82.9392 6.90059C82.4324 6.88475 82.1842 6.99562 82.1842 7.22791C82.1842 7.39685 82.2529 7.65554 82.3848 8.00926C82.5696 8.47912 82.6699 8.75893 82.6858 8.8434C83.5093 11.1294 84.1798 12.8716 84.7025 14.0647C86.2652 10.0788 87.0465 7.80864 87.0465 7.25431C87.0465 7.06953 86.8512 6.97978 86.4658 6.97978C85.6581 6.97978 85.2568 6.90587 85.2568 6.75277C85.2568 6.59967 85.3571 6.52576 85.5577 6.52576C85.7267 6.52576 85.8956 6.53632 86.0646 6.55215C86.3813 6.58383 86.8195 6.60495 87.3739 6.60495C87.4425 6.60495 87.6906 6.58911 88.1183 6.56799C88.5459 6.54159 88.8257 6.53104 88.9629 6.53104H89.1161C89.2639 6.52576 89.3431 6.58383 89.3431 6.69998Z" fill="white" fill-opacity="0.2"/>
<path d="M102.161 17.2901C102.161 17.4273 101.95 17.4907 101.533 17.4907C101.501 17.4907 101.28 17.4907 100.878 17.4907C100.477 17.4907 99.8859 17.4907 99.1151 17.4907H98.3074H96.1376C95.9 17.4907 95.7838 17.4273 95.7838 17.3006C95.7838 17.1898 95.8841 17.137 96.0795 17.137H96.2801C96.7077 17.137 96.9611 17.0842 97.035 16.9733C97.109 16.8624 97.1459 16.4876 97.1459 15.8435V10.9495C97.1459 9.144 97.0298 8.06173 96.7975 7.70274C96.5969 7.39653 96.2431 7.24343 95.731 7.24343C95.2189 7.24343 94.7966 7.40181 94.464 7.72385C94.1314 8.04062 93.9677 8.44713 93.9677 8.93283V16.5562C93.9994 16.7569 94.0733 16.8888 94.1842 16.9469C94.2951 17.005 94.5643 17.0419 95.0025 17.0578C95.1345 17.0578 95.2031 17.1106 95.2031 17.2056C95.2031 17.3059 95.145 17.364 95.0289 17.3798C94.9127 17.3957 94.4904 17.4062 93.7671 17.4062C93.0439 17.4062 92.4473 17.4168 91.9774 17.4326C91.0535 17.4643 90.1085 17.4854 89.153 17.4854C88.9523 17.4854 88.852 17.4273 88.852 17.3112C88.852 17.1792 89.1107 17.1106 89.6228 17.1106C90.1349 17.1106 90.4358 17.0103 90.5203 16.8096L90.5942 16.4559V10.675C90.5942 9.04898 90.5784 8.199 90.5414 8.13564C90.4886 7.88224 90.2616 7.75553 89.8604 7.75553C89.6439 7.75553 89.4486 7.75553 89.2797 7.75553H89.0051C88.7359 7.75553 88.5986 7.70274 88.5986 7.59187C88.5986 7.481 88.6989 7.41765 88.8996 7.40181C90.7737 7.31734 92.2731 6.92139 93.3923 6.21396C93.5243 6.14532 93.6193 6.11365 93.6668 6.11365C93.7988 6.11365 93.8674 6.25091 93.8674 6.51488C93.8674 7.25399 93.8674 7.73441 93.8674 7.95087C94.7596 6.78941 95.9 6.20868 97.299 6.20868C98.7456 6.20868 99.6853 6.71022 100.123 7.72385C100.308 8.1462 100.419 8.61607 100.461 9.13872C100.504 9.66138 100.525 10.7384 100.525 12.3644V16.023C100.525 16.5457 100.567 16.8519 100.651 16.9416C100.736 17.0367 101.01 17.0789 101.47 17.0789C101.929 17.0895 102.161 17.1581 102.161 17.2901Z" fill="white" fill-opacity="0.2"/>
<path d="M110.529 13.9641C110.529 15.0886 110.186 16.0019 109.5 16.6988C108.813 17.3956 107.926 17.7441 106.834 17.7441C106.295 17.7441 105.661 17.6068 104.922 17.3429C104.321 17.1264 103.925 17.0155 103.74 17.0155C103.423 17.0155 103.212 17.137 103.112 17.3798C103.011 17.6227 102.937 17.7441 102.885 17.7441C102.784 17.7441 102.731 17.686 102.731 17.5646C102.731 17.4643 102.747 17.3006 102.774 17.0842C102.816 16.7621 102.837 16.2025 102.837 15.4106C102.837 15.3789 102.837 15.2945 102.837 15.1572C102.837 15.0199 102.837 14.8352 102.837 14.5976V14.1647C102.837 13.9799 102.879 13.8849 102.964 13.8849C103.064 13.8849 103.138 14.0116 103.191 14.265C103.344 15.1572 103.771 15.9016 104.474 16.4982C105.176 17.0947 105.962 17.3956 106.834 17.3956C107.388 17.3956 107.831 17.2214 108.174 16.8783C108.518 16.5351 108.687 16.0864 108.687 15.5267C108.687 15.0886 108.528 14.719 108.206 14.4181C107.969 14.2016 107.34 13.9218 106.316 13.5839C105.054 13.1616 104.141 12.6548 103.581 12.0582C103.017 11.4616 102.737 10.7014 102.737 9.77752C102.737 8.785 103.075 7.94558 103.745 7.25398C104.416 6.56238 105.239 6.21922 106.216 6.21922C106.585 6.21922 107.224 6.33537 108.132 6.57294C108.269 6.60462 108.37 6.62574 108.433 6.62574C108.803 6.62574 109.083 6.39872 109.267 5.9447C109.299 5.86023 109.341 5.81799 109.394 5.81799C109.51 5.81799 109.568 5.9183 109.568 6.11892L109.542 6.59934C109.526 6.66797 109.515 6.78412 109.515 6.95306C109.515 7.64465 109.558 8.34681 109.642 9.07008V9.19679C109.642 9.33405 109.589 9.3974 109.489 9.3974C109.405 9.3974 109.336 9.32349 109.288 9.17039C108.803 7.4546 107.81 6.59934 106.311 6.59934C105.757 6.59934 105.297 6.75244 104.938 7.05336C104.574 7.35429 104.394 7.74496 104.394 8.21483C104.394 8.65301 104.548 8.99617 104.848 9.24958C105.149 9.50299 105.741 9.78808 106.612 10.1048C108.143 10.6433 109.178 11.1818 109.716 11.7203C110.26 12.2588 110.529 13.0032 110.529 13.9641Z" fill="white" fill-opacity="0.2"/>
<path d="M11.013 16.435V11.4566H11.0183V1.75836C11.0183 0.808079 11.7838 0.0478502 12.7288 0.0214533C11.1977 0.0214533 9.804 0.554669 8.71117 1.44688C7.61834 0.544111 6.21403 0.00561523 4.67773 0.00561523C5.62802 0.0267327 6.38825 0.792241 6.38825 1.74253V11.805C6.38825 15.5058 9.39749 18.4887 13.0719 18.4887C11.9369 18.494 11.013 17.5701 11.013 16.435Z" fill="white" fill-opacity="0.2"/>
<path d="M0 4.64108C0 2.07531 2.03784 0.0163574 4.60361 0.0163574H0V4.64108Z" fill="white" fill-opacity="0.2"/>
<path d="M12.7705 0.0112305C15.3152 0.0112305 17.4216 2.07018 17.4216 4.63596V0.0112305H12.7705Z" fill="white" fill-opacity="0.2"/>
<path d="M55.7874 13.6472C55.7188 11.1975 53.5648 9.22833 51.1152 9.22833H50.2071C52.889 9.22833 55.0166 7.05323 54.8318 4.37132C54.7685 1.85306 52.5934 0 50.0487 0H48.3382C49.3096 0 50.0487 0.786626 50.0487 1.71051V7.44919C50.0487 8.39947 49.3571 9.22833 48.428 9.22833C47.409 9.32336 46.6224 8.53674 46.6224 7.53894V6.31412C46.6224 6.07655 46.6066 5.84426 46.5802 5.61197V1.74747C46.5802 0.797184 47.3457 0.0369556 48.2907 0.0105587C46.7702 0.0105587 45.387 0.538495 44.2995 1.42015C43.2067 0.533216 41.8023 0 40.2608 0C41.1847 0 42.0188 0.786626 42.0188 1.71051V5.49582C41.9818 5.77563 41.9554 6.06071 41.9554 6.35108V16.4399C41.9554 17.575 41.0316 18.4989 39.8965 18.4989C41.57 18.4989 43.1011 17.8759 44.2731 16.857C45.4398 17.8865 46.9603 18.5095 48.6339 18.5095C47.5674 18.5095 46.6224 17.5592 46.6224 16.4294V11.5037C46.6224 10.4373 47.5041 9.42367 48.5863 9.42367C49.7636 9.42367 50.6928 10.3476 50.6928 11.4615V16.4347C50.6928 17.5697 49.8376 18.5147 48.6339 18.5147H51.1785C53.8393 18.5095 55.9458 16.2868 55.7874 13.6472Z" fill="white" fill-opacity="0.2"/>
</g>
<defs>
<clipPath id="clip0_402_936">
<rect width="110.529" height="24" fill="white"/>
</clipPath>
</defs>
</svg>
