<svg width="25" height="24" viewBox="0 0 25 24" fill="none" xmlns="http://www.w3.org/2000/svg">
<path d="M3.68634 10.968C3.68634 10.968 12.2446 7.45574 15.2127 6.21897C16.3505 5.72431 20.2091 4.14124 20.2091 4.14124C20.2091 4.14124 21.9901 3.44871 21.8416 5.13064C21.7921 5.82324 21.3964 8.2472 21.0007 10.8691C20.407 14.5793 19.7639 18.6358 19.7639 18.6358C19.7639 18.6358 19.665 19.7736 18.824 19.9715C17.983 20.1694 16.5978 19.279 16.3505 19.081C16.1526 18.9327 12.6403 16.7065 11.3541 15.6182C11.0078 15.3214 10.6121 14.7278 11.4035 14.0352C13.1845 12.4027 15.3116 10.3744 16.5978 9.08824C17.1915 8.49457 17.7851 7.10944 15.3116 8.79137C11.7993 11.2154 8.33648 13.491 8.33648 13.491C8.33648 13.491 7.54494 13.9857 6.06088 13.5404C4.57674 13.0953 2.84531 12.5016 2.84531 12.5016C2.84531 12.5016 1.65811 11.7596 3.68634 10.968V10.968Z" fill="white" fill-opacity="0.9"/>
</svg>

