<svg width="24" height="24" viewBox="0 0 24 24" fill="none" xmlns="http://www.w3.org/2000/svg">
<g clip-path="url(#clip0_140_3110)">
<path d="M21.0004 12.211C21.0004 11.5868 20.9498 10.9593 20.8419 10.3452H12.181V13.8811H17.1407C16.9348 15.0215 16.2736 16.0303 15.3052 16.6714V18.9656H18.2642C20.0018 17.3664 21.0004 15.0046 21.0004 12.211Z" fill="#4285F4"/>
<path d="M12.1805 21.1824C14.6569 21.1824 16.7454 20.3693 18.2671 18.9658L15.3081 16.6715C14.4849 17.2316 13.4221 17.5487 12.1838 17.5487C9.78835 17.5487 7.75723 15.9326 7.02846 13.7598H3.97504V16.1249C5.5338 19.2256 8.70868 21.1824 12.1805 21.1824Z" fill="#34A853"/>
<path d="M7.02485 13.7597C6.64022 12.6193 6.64022 11.3844 7.02485 10.244V7.87891H3.9748C2.67246 10.4735 2.67246 13.5303 3.9748 16.1248L7.02485 13.7597Z" fill="#FBBC04"/>
<path d="M12.1805 6.45174C13.4896 6.4315 14.7548 6.92409 15.7029 7.82831L18.3244 5.20676C16.6644 3.64799 14.4613 2.79101 12.1805 2.818C8.70868 2.818 5.5338 4.77489 3.97504 7.87892L7.02508 10.2441C7.75048 8.06786 9.78497 6.45174 12.1805 6.45174Z" fill="#EA4335"/>
</g>
<defs>
<clipPath id="clip0_140_3110">
<rect width="18" height="18.3644" fill="white" transform="translate(3 2.81787)"/>
</clipPath>
</defs>
</svg>
