<svg width="148" height="32" viewBox="0 0 148 32" fill="none" xmlns="http://www.w3.org/2000/svg">
<g clip-path="url(#clip0_140_3125)">
<path d="M34.4285 16.1266C34.4285 18.5269 33.4853 20.4627 31.6058 21.9409C30.1276 23.1094 28.5016 23.6937 26.7277 23.6937C24.623 23.6937 22.7998 22.9334 21.2653 21.42C19.7308 19.9066 18.9635 18.1187 18.9635 16.0562C18.9635 13.9022 19.7308 12.072 21.2653 10.5586C22.7998 9.04518 24.6582 8.29199 26.8333 8.29199C28.9169 8.29199 30.7048 9.05926 32.1971 10.5938C33.6824 12.1354 34.4285 13.9796 34.4285 16.1266ZM29.3533 16.1618C29.3533 13.3813 29.1632 11.4737 28.7831 10.446C28.3608 9.30563 27.678 8.72842 26.7418 8.72842C25.876 8.72842 25.1932 9.32675 24.7004 10.5304C24.2077 11.7271 23.9683 13.3813 23.9683 15.4931C23.9683 18.4284 24.2569 20.512 24.8342 21.7509C25.2987 22.7363 25.9604 23.2291 26.8051 23.2291C27.854 23.2291 28.5438 22.6026 28.8746 21.3496C29.1984 20.153 29.3533 18.4284 29.3533 16.1618Z" fill="white" fill-opacity="0.9"/>
<path d="M52.5895 15.7117C52.5895 17.9924 51.9419 19.893 50.6467 21.4134C49.3515 22.9339 47.7325 23.6941 45.7897 23.6941C44.3115 23.6941 43.1289 23.1099 42.2349 21.9414V29.4803C42.2349 30.1068 42.2701 30.501 42.3335 30.6699C42.3968 30.8389 42.5517 30.9444 42.784 30.9867C43.0163 31.0289 43.6076 31.0641 44.5578 31.0852C44.8042 31.0852 44.9239 31.1908 44.9239 31.409C44.9239 31.578 44.7761 31.6624 44.4875 31.6624C44.4663 31.6624 44.3537 31.6624 44.1496 31.6624C43.9454 31.6624 43.7554 31.6624 43.5794 31.6624H40.1865C39.9402 31.6624 39.6023 31.6624 39.1799 31.6624C38.7505 31.6624 38.2578 31.6624 37.7017 31.6624H36.0194C35.5266 31.6624 35.2802 31.5709 35.2802 31.3949C35.2802 31.2401 35.6815 31.1627 36.491 31.1627C37.1597 31.1627 37.5398 31.0923 37.6172 30.9585C37.6947 30.8248 37.7369 30.3954 37.7369 29.6774V12.7341C37.7369 12.5793 37.7369 12.4244 37.7369 12.2625C37.7369 12.1288 37.7369 12.0373 37.7369 11.995V11.0518C37.758 10.5802 37.582 10.2916 37.2019 10.1789C37.0189 10.1085 36.6388 10.0804 36.0616 10.0804H35.407C35.2239 10.0804 35.1395 10.01 35.1395 9.87625C35.1395 9.69323 35.2732 9.62988 35.5407 9.67212C37.9199 9.60172 40.0035 9.15826 41.7985 8.32764C41.89 8.46138 41.9463 8.6444 41.9674 8.86965L42.0378 9.70731L42.073 10.2775C42.6784 9.53133 43.2697 9.01747 43.8539 8.74295C44.4382 8.46842 45.1914 8.32764 46.1065 8.32764C47.9648 8.32764 49.5134 9.02451 50.7452 10.4253C51.9701 11.8261 52.5895 13.5859 52.5895 15.7117ZM47.648 15.578C47.648 11.3052 46.6907 9.17234 44.7761 9.17234C43.9314 9.17234 43.2134 9.57357 42.6362 10.3831C42.3687 10.7632 42.2349 11.4037 42.2349 12.2977V18.9075C42.2349 20.3364 42.4109 21.3078 42.7699 21.8287C43.2838 22.589 43.9736 22.9691 44.8394 22.9691C46.7118 22.955 47.648 20.4983 47.648 15.578Z" fill="white" fill-opacity="0.9"/>
<path d="M88.7919 10.8127C88.7919 11.4603 88.6018 11.9952 88.2217 12.4105C87.8416 12.8259 87.3489 13.03 86.7435 13.03C85.5328 13.03 84.9274 12.4669 84.9274 11.3476C84.9274 10.9675 85.0752 10.5874 85.3638 10.2073C85.4342 10.1158 85.4624 10.0384 85.4624 9.975C85.4624 9.77087 85.3216 9.67232 85.033 9.67232C84.2798 9.67232 83.7026 10.2636 83.3084 11.4532C83.0902 12.1219 82.9775 13.7691 82.9775 16.3806V18.8303V21.7797C82.9775 22.385 83.2802 22.7088 83.8856 22.7511C84.2446 22.7722 84.6669 22.7863 85.1667 22.7863C85.4131 22.8074 85.5328 22.8848 85.5328 23.0185C85.5328 23.2016 85.4342 23.286 85.2301 23.286H84.5543C84.3502 23.286 83.3788 23.286 81.626 23.286C81.7175 23.286 81.2107 23.286 80.1126 23.286H78.4654H77.1843C76.9591 23.286 76.6986 23.286 76.41 23.286C76.1636 23.286 76.0369 23.2156 76.0369 23.0678C76.0369 22.92 76.1918 22.8496 76.5086 22.8496C77.4307 22.8285 77.9797 22.7299 78.1698 22.561C78.3599 22.3921 78.4584 21.8923 78.4584 21.0687L78.4232 12.0093C78.4232 11.2491 78.3176 10.7212 78.1064 10.4325C77.8953 10.1439 77.4166 9.96092 76.6775 9.89757C76.0932 9.85534 75.7624 9.82718 75.685 9.80606C75.6075 9.78494 75.5653 9.71455 75.5653 9.58785C75.5653 9.46114 75.6568 9.39779 75.8328 9.39779C76.0369 9.39779 76.227 9.39779 76.403 9.39779H77.0717C78.7963 9.39779 80.6617 9.03879 82.6537 8.3208C82.7664 8.77131 82.8227 9.28516 82.8227 9.86941V11.2843C83.2521 10.2003 83.7167 9.43299 84.2164 8.98952C84.7233 8.54605 85.3779 8.3208 86.1874 8.3208C86.9476 8.3208 87.5741 8.55309 88.0528 9.02472C88.5455 9.50338 88.7919 10.1017 88.7919 10.8127Z" fill="white" fill-opacity="0.9"/>
<path d="M103.483 19.1539C103.483 19.6466 103.194 20.2942 102.61 21.1037C101.357 22.8283 99.7166 23.6941 97.6964 23.6941C95.4298 23.6941 93.5715 22.9761 92.1144 21.5401C90.6573 20.1041 89.9322 18.2669 89.9322 16.0285C89.9322 13.8323 90.6361 12.0021 92.051 10.5309C93.4659 9.05971 95.2257 8.32764 97.3304 8.32764C98.7664 8.32764 99.9841 8.6444 100.998 9.27088C102.117 9.96776 102.849 10.9673 103.18 12.2625C103.271 12.6638 103.335 13.1495 103.384 13.7056C102.87 13.7619 100.794 13.8111 97.1614 13.8393C96.5983 13.8393 95.8944 13.8604 95.0426 13.9097C94.9723 14.7122 94.9441 15.395 94.9441 15.951C94.9441 18.5626 95.4931 20.4209 96.5913 21.512C97.2389 22.1596 98.0343 22.4834 98.9775 22.4834C99.7589 22.4834 100.519 22.2159 101.251 21.6739C101.976 21.1389 102.532 20.442 102.912 19.5903C103.088 19.1609 103.236 18.9497 103.349 18.9497C103.44 18.9568 103.483 19.0201 103.483 19.1539ZM99.245 13.2691C99.2661 11.5516 99.1465 10.362 98.879 9.69323C98.6115 9.02451 98.1399 8.69367 97.4641 8.69367C96.0985 8.69367 95.3101 10.2212 95.113 13.2691C95.5847 13.2691 96.5701 13.2691 98.0695 13.2691C98.52 13.2691 98.9142 13.2691 99.245 13.2691Z" fill="white" fill-opacity="0.9"/>
<path d="M119.124 8.93298C119.124 9.08784 119.081 9.18639 118.99 9.22158C118.898 9.25678 118.589 9.27086 118.047 9.27086C117.441 9.27086 117.082 9.30605 116.97 9.3694L116.766 9.73544L116.364 10.911C116.181 11.446 115.78 12.537 115.154 14.1701C115.111 14.3039 114.619 15.6835 113.675 18.3091C111.458 24.5177 110.022 28.2766 109.374 29.5718C108.565 31.1837 107.537 31.9932 106.277 31.9932C105.559 31.9932 104.982 31.7821 104.546 31.3527C104.109 30.9233 103.891 30.3672 103.891 29.6703C103.891 28.5722 104.496 28.0232 105.707 28.0232C106.108 28.0232 106.432 28.1569 106.685 28.4244C106.798 28.537 106.988 28.8467 107.256 29.3676C107.41 29.5929 107.629 29.7055 107.896 29.7055C108.347 29.7055 108.776 29.3324 109.191 28.5793C109.607 27.8261 110.17 26.4112 110.888 24.3276C110.712 23.9686 110.36 23.1732 109.846 21.9413C109.17 20.2379 108.276 18.0064 107.15 15.2471C106.883 14.5784 106.277 13.1072 105.341 10.8406C105.024 10.0452 104.757 9.57354 104.531 9.42572C104.306 9.27789 103.792 9.18639 102.983 9.16527C102.715 9.16527 102.582 9.08784 102.582 8.93298C102.582 8.77811 102.715 8.70068 102.983 8.70068H103.588C103.926 8.70068 104.426 8.70068 105.102 8.70068C105.77 8.70068 106.291 8.70068 106.65 8.70068H110.754C110.888 8.70068 111.043 8.70068 111.226 8.70068C111.472 8.70068 111.592 8.77811 111.592 8.93298C111.592 9.13711 111.254 9.22158 110.585 9.20046C109.909 9.17935 109.579 9.32717 109.579 9.63689C109.579 9.86214 109.67 10.2071 109.846 10.6787C110.092 11.3052 110.226 11.6782 110.247 11.7909C111.345 14.8388 112.239 17.1617 112.936 18.7526C115.02 13.438 116.062 10.4112 116.062 9.67209C116.062 9.42572 115.801 9.30605 115.287 9.30605C114.21 9.30605 113.675 9.2075 113.675 9.00337C113.675 8.79923 113.809 8.70068 114.077 8.70068C114.302 8.70068 114.527 8.71476 114.752 8.73588C115.175 8.77811 115.759 8.80627 116.498 8.80627C116.59 8.80627 116.92 8.78515 117.491 8.757C118.061 8.7218 118.434 8.70772 118.617 8.70772H118.821C119.018 8.70068 119.124 8.77811 119.124 8.93298Z" fill="white" fill-opacity="0.9"/>
<path d="M136.215 23.0533C136.215 23.2363 135.933 23.3207 135.377 23.3207C135.335 23.3207 135.039 23.3207 134.504 23.3207C133.969 23.3207 133.181 23.3207 132.153 23.3207H131.076H128.183C127.866 23.3207 127.711 23.2363 127.711 23.0673C127.711 22.9195 127.845 22.8491 128.106 22.8491H128.373C128.943 22.8491 129.281 22.7787 129.38 22.6309C129.478 22.4831 129.527 21.9833 129.527 21.1245V14.5992C129.527 12.1918 129.373 10.7488 129.063 10.2702C128.795 9.86188 128.324 9.65775 127.641 9.65775C126.958 9.65775 126.395 9.86892 125.952 10.2983C125.508 10.7207 125.29 11.2627 125.29 11.9103V22.0748C125.332 22.3423 125.431 22.5183 125.578 22.5957C125.726 22.6731 126.085 22.7224 126.67 22.7435C126.846 22.7435 126.937 22.8139 126.937 22.9406C126.937 23.0744 126.86 23.1518 126.705 23.1729C126.55 23.194 125.987 23.2081 125.022 23.2081C124.058 23.2081 123.263 23.2222 122.636 23.2433C121.404 23.2856 120.144 23.3137 118.87 23.3137C118.603 23.3137 118.469 23.2363 118.469 23.0814C118.469 22.9054 118.814 22.8139 119.497 22.8139C120.179 22.8139 120.581 22.6802 120.693 22.4127L120.792 21.9411V14.2332C120.792 12.0651 120.771 10.9318 120.721 10.8474C120.651 10.5095 120.348 10.3405 119.813 10.3405C119.525 10.3405 119.264 10.3405 119.039 10.3405H118.673C118.314 10.3405 118.131 10.2702 118.131 10.1223C118.131 9.97451 118.265 9.89004 118.532 9.86892C121.031 9.75629 123.03 9.22836 124.523 8.28511C124.699 8.1936 124.825 8.15137 124.889 8.15137C125.065 8.15137 125.156 8.33439 125.156 8.68634C125.156 9.67182 125.156 10.3124 125.156 10.601C126.346 9.05238 127.866 8.27807 129.732 8.27807C131.66 8.27807 132.913 8.94679 133.498 10.2983C133.744 10.8614 133.892 11.4879 133.948 12.1848C134.004 12.8817 134.033 14.3177 134.033 16.4857V21.3639C134.033 22.0607 134.089 22.469 134.201 22.5887C134.314 22.7154 134.68 22.7717 135.293 22.7717C135.905 22.7858 136.215 22.8773 136.215 23.0533Z" fill="white" fill-opacity="0.9"/>
<path d="M147.372 18.6187C147.372 20.1181 146.914 21.3359 145.999 22.265C145.084 23.1942 143.901 23.6588 142.444 23.6588C141.726 23.6588 140.882 23.4758 139.896 23.1238C139.094 22.8352 138.566 22.6874 138.319 22.6874C137.897 22.6874 137.615 22.8493 137.482 23.1731C137.348 23.4969 137.249 23.6588 137.179 23.6588C137.045 23.6588 136.975 23.5813 136.975 23.4194C136.975 23.2857 136.996 23.0675 137.031 22.7789C137.088 22.3495 137.116 21.6033 137.116 20.5475C137.116 20.5052 137.116 20.3926 137.116 20.2096C137.116 20.0266 137.116 19.7802 137.116 19.4634V18.8862C137.116 18.6399 137.172 18.5132 137.285 18.5132C137.418 18.5132 137.517 18.6821 137.587 19.02C137.791 20.2096 138.362 21.2021 139.298 21.9975C140.234 22.793 141.283 23.1942 142.444 23.1942C143.183 23.1942 143.775 22.9619 144.232 22.5044C144.69 22.0468 144.915 21.4485 144.915 20.7023C144.915 20.1181 144.704 19.6253 144.275 19.2241C143.958 18.9355 143.12 18.5624 141.754 18.1119C140.072 17.5488 138.854 16.873 138.108 16.0776C137.355 15.2822 136.982 14.2685 136.982 13.0367C136.982 11.7133 137.432 10.5941 138.326 9.67197C139.22 8.74984 140.319 8.2923 141.621 8.2923C142.113 8.2923 142.965 8.44716 144.176 8.76392C144.359 8.80616 144.493 8.83431 144.577 8.83431C145.07 8.83431 145.443 8.53163 145.689 7.92626C145.732 7.81364 145.788 7.75732 145.858 7.75732C146.013 7.75732 146.091 7.89107 146.091 8.15856L146.055 8.79912C146.034 8.89063 146.02 9.04549 146.02 9.27074C146.02 10.1929 146.077 11.1291 146.189 12.0934V12.2624C146.189 12.4454 146.119 12.5299 145.985 12.5299C145.872 12.5299 145.781 12.4313 145.718 12.2272C145.07 9.93946 143.747 8.79912 141.747 8.79912C141.008 8.79912 140.396 9.00325 139.917 9.40449C139.432 9.80572 139.192 10.3266 139.192 10.9531C139.192 11.5374 139.396 11.9949 139.798 12.3328C140.199 12.6707 140.987 13.0508 142.149 13.4731C144.19 14.1911 145.57 14.9091 146.288 15.6271C147.013 16.3451 147.372 17.3376 147.372 18.6187Z" fill="white" fill-opacity="0.9"/>
<path d="M14.6836 21.9132V15.2753H14.6907V2.34432C14.6907 1.07728 15.7113 0.0636375 16.9713 0.0284417C14.93 0.0284417 13.0716 0.739396 11.6145 1.92901C10.1574 0.725318 8.28503 0.00732422 6.23663 0.00732422C7.50368 0.0354808 8.51732 1.05616 8.51732 2.32321V15.7398C8.51732 20.6743 12.5296 24.6514 17.4289 24.6514C15.9155 24.6584 14.6836 23.4266 14.6836 21.9132Z" fill="white" fill-opacity="0.9"/>
<path d="M0 6.18827C0 2.76724 2.71711 0.0219727 6.13814 0.0219727H0V6.18827Z" fill="white" fill-opacity="0.9"/>
<path d="M17.0277 0.0146484C20.4206 0.0146484 23.2292 2.75992 23.2292 6.18095V0.0146484H17.0277Z" fill="white" fill-opacity="0.9"/>
<path d="M74.3828 18.1962C74.2913 14.93 71.4193 12.3044 68.1532 12.3044H66.9424C70.5183 12.3044 73.3551 9.40431 73.1088 5.82842C73.0243 2.47074 70.1241 0 66.7313 0H64.4506C65.7458 0 66.7313 1.04883 66.7313 2.28069V9.93225C66.7313 11.1993 65.8091 12.3044 64.5702 12.3044C63.2117 12.4311 62.1628 11.3823 62.1628 10.0519V8.41883C62.1628 8.10207 62.1417 7.79235 62.1065 7.48262V2.32996C62.1065 1.06291 63.1272 0.0492741 64.3872 0.0140783C62.3599 0.0140783 60.5157 0.717994 59.0656 1.89353C57.6085 0.710955 55.7361 0 53.6807 0C54.9125 0 56.0247 1.04883 56.0247 2.28069V7.32776C55.9754 7.70084 55.9402 8.08095 55.9402 8.4681V21.9199C55.9402 23.4333 54.7084 24.6652 53.1949 24.6652C55.4264 24.6652 57.4677 23.8346 59.0304 22.476C60.5861 23.8487 62.6134 24.6793 64.8448 24.6793C63.4229 24.6793 62.1628 23.4122 62.1628 21.9059V15.3383C62.1628 13.9164 63.3384 12.5649 64.7814 12.5649C66.3511 12.5649 67.59 13.7967 67.59 15.282V21.9129C67.59 23.4263 66.4497 24.6863 64.8448 24.6863H68.2376C71.7854 24.6793 74.594 21.7158 74.3828 18.1962Z" fill="white" fill-opacity="0.9"/>
</g>
<defs>
<clipPath id="clip0_140_3125">
<rect width="147.372" height="32" fill="white"/>
</clipPath>
</defs>
</svg>
