<svg width="70" height="20" viewBox="0 0 70 20" fill="none" xmlns="http://www.w3.org/2000/svg">
<g clip-path="url(#clip0_177_4467)">
<path d="M11.8651 1.97495C11.6242 1.58503 11.3101 1.24545 10.9401 0.974949C10.5664 0.719444 10.157 0.520625 9.72514 0.384949C9.25589 0.231429 8.7714 0.129167 8.28014 0.0799492C7.70521 0.0239072 7.12779 -0.00279408 6.55014 -5.0833e-05H1.55014C1.43424 -0.0109985 1.31732 0.00142641 1.20631 0.036488C1.09529 0.0715495 0.992448 0.128534 0.90386 0.204067C0.815273 0.2796 0.742745 0.372144 0.690575 0.476217C0.638404 0.58029 0.607651 0.693775 0.600139 0.809949C0.600139 0.809949 0.600139 0.839949 0.600139 0.854949V8.97495C1.29335 10.4624 2.44452 11.689 3.88514 12.475V10.845C3.87416 10.7192 3.8881 10.5925 3.92616 10.4721C3.96421 10.3517 4.02564 10.2401 4.10691 10.1435C4.18819 10.0468 4.28772 9.96723 4.39981 9.90914C4.5119 9.85106 4.63435 9.81565 4.76014 9.80495H6.26014C8.30681 9.80495 9.86847 9.37662 10.9451 8.51995C12.0218 7.66328 12.5685 6.39328 12.5851 4.70995C12.5869 4.22484 12.5298 3.74131 12.4151 3.26995C12.3008 2.81212 12.1152 2.37511 11.8651 1.97495ZM8.93514 6.14995C8.76076 6.45 8.50156 6.6918 8.19014 6.84495C7.8527 7.00612 7.4881 7.10278 7.11514 7.12995C6.70546 7.18096 6.29297 7.20601 5.88014 7.20495H4.44014C4.09514 7.20495 3.88014 6.92495 3.88014 6.51495V3.16495C3.87517 3.09145 3.8865 3.01775 3.91332 2.94914C3.94014 2.88053 3.9818 2.81869 4.03531 2.76805C4.08881 2.71741 4.15285 2.67922 4.22283 2.65621C4.29282 2.6332 4.36702 2.62594 4.44014 2.63495H5.88014C6.34681 2.63495 6.78681 2.64828 7.20014 2.67495C7.56851 2.69263 7.93006 2.78089 8.26514 2.93495C8.57343 3.07221 8.83062 3.30315 9.00014 3.59495C9.19156 3.98621 9.27936 4.42005 9.25514 4.85495C9.26486 5.30573 9.15441 5.75097 8.93514 6.14495V6.14995ZM3.89014 12.965C2.65712 12.5201 1.53482 11.814 0.600139 10.895V14.82C0.589668 14.8947 0.594423 14.9708 0.614119 15.0437C0.633815 15.1166 0.668044 15.1847 0.714749 15.2441C0.761454 15.3034 0.819671 15.3526 0.8859 15.3889C0.952129 15.4251 1.025 15.4476 1.10014 15.455H3.36014C3.96014 15.455 3.89014 14.815 3.89014 14.815V12.965ZM34.9501 4.27495H33.0001C32.814 4.26278 32.6296 4.31684 32.4796 4.42756C32.3295 4.53829 32.2234 4.69854 32.1801 4.87995L29.9151 11.12C29.9151 11.12 27.9151 5.43495 27.7651 4.99495C27.723 4.79193 27.6128 4.60939 27.4528 4.47754C27.2927 4.3457 27.0925 4.27246 26.8851 4.26995H25.0901C24.4501 4.26995 24.4501 4.76995 24.5351 4.96495C24.6201 5.15995 27.0751 11.89 28.0351 14.465C28.1863 14.7819 28.2924 15.1185 28.3501 15.465C28.2879 15.8068 28.1588 16.1331 27.9701 16.4249C27.8972 16.5487 27.8135 16.6658 27.7201 16.775C29.5701 16.225 31.7201 14.22 32.8001 12.055C33.8901 9.05495 35.3251 5.05495 35.3901 4.84995C35.4601 4.53495 35.4601 4.27495 34.9501 4.27495ZM26.2601 17.385C26.0929 17.3805 25.926 17.3671 25.7601 17.3449C25.5551 17.3149 25.1651 17.3449 25.1651 17.695V19.195C25.1651 19.77 25.4451 19.81 25.5901 19.85C26.0532 19.9515 26.5261 20.0018 27.0001 20C27.5604 20.0147 28.1164 19.9001 28.6251 19.665C29.0905 19.4298 29.5038 19.1033 29.8401 18.705C30.2215 18.2689 30.5443 17.7847 30.8001 17.2649C31.0768 16.7116 31.3401 16.1 31.5901 15.43L31.8801 14.635C31.3001 15.21 28.7401 17.625 26.2601 17.385ZM23.3101 6.06995C23.2039 5.81729 23.0588 5.58279 22.8801 5.37495C22.6995 5.18242 22.4944 5.01433 22.2701 4.87495C22.0279 4.70999 21.77 4.56931 21.5001 4.45495C21.2254 4.34848 20.9429 4.26323 20.6551 4.19995C20.3258 4.1271 19.9916 4.07863 19.6551 4.05495C19.2951 4.01828 18.8918 3.99995 18.4451 3.99995C15.4651 3.99995 13.7685 4.93995 13.3551 6.81995C13.3375 6.89002 13.3353 6.96309 13.3486 7.03411C13.3619 7.10513 13.3904 7.17242 13.4323 7.23134C13.4741 7.29027 13.5282 7.33943 13.5908 7.37544C13.6535 7.41146 13.7232 7.43346 13.7951 7.43995H15.6301C16.1301 7.43995 16.1301 7.28495 16.3201 6.85495C16.4034 6.62085 16.5528 6.41591 16.7501 6.26495C17.219 5.96231 17.7735 5.82017 18.3301 5.85995C18.8493 5.80689 19.3707 5.93592 19.8051 6.22495C20.1365 6.53429 20.3324 6.96196 20.3501 7.41495C20.3501 8.03495 20.1601 8.44495 19.3901 8.44495C17.5651 8.37995 15.6051 8.58495 14.5001 9.21995C13.9562 9.55199 13.5097 10.0219 13.2059 10.5821C12.902 11.1424 12.7517 11.7729 12.7701 12.41C12.7576 12.9061 12.8585 13.3987 13.0651 13.85C13.2598 14.2421 13.5421 14.5843 13.8901 14.85C14.2555 15.1479 14.6772 15.369 15.1301 15.5C15.6418 15.6385 16.1701 15.7058 16.7001 15.7C17.4132 15.711 18.1236 15.6098 18.8051 15.4C19.4076 15.1531 19.9769 14.8323 20.5001 14.445V14.795C20.5001 15.14 20.6051 15.45 21.0001 15.45H23.1251C23.5551 15.45 23.6551 15.145 23.6551 14.765V8.21995C23.6577 7.81172 23.6293 7.40388 23.5701 6.99995C23.523 6.68024 23.4356 6.36777 23.3101 6.06995ZM20.4051 12.5C20.4051 12.5 19.8551 13.65 17.9051 13.65C17.4376 13.6715 16.9752 13.5436 16.5851 13.285C16.4134 13.1516 16.2778 12.9775 16.1904 12.7784C16.1031 12.5793 16.0669 12.3616 16.0851 12.145C16.0636 11.854 16.131 11.5634 16.2783 11.3116C16.4257 11.0599 16.646 10.8587 16.9101 10.735C17.6989 10.4319 18.5406 10.2908 19.3851 10.32C19.5144 10.3005 19.6463 10.3092 19.7718 10.3455C19.8974 10.3819 20.0135 10.445 20.1124 10.5305C20.2112 10.616 20.2903 10.7219 20.3443 10.8409C20.3983 10.96 20.4259 11.0893 20.4251 11.22L20.4051 12.5Z" fill="white"/>
<path fill-rule="evenodd" clip-rule="evenodd" d="M69.3768 9.60965C69.3768 9.1431 69.2462 8.68586 68.9999 8.28965C68.6399 7.74965 65.9549 4.40465 65.0449 3.48965C64.0049 2.41965 63.0799 1.88965 62.0449 1.88965H39.9249C37.9199 1.88965 37.2449 2.55465 37.2449 4.83965V13.9346C37.2449 16.1646 37.4199 17.1646 40.3499 17.1646H61.9949C63.0399 17.1646 64.0949 16.3446 64.8749 15.5346C65.7749 14.5996 68.4999 11.6896 68.9999 10.9296C69.2462 10.5334 69.3768 10.0762 69.3768 9.60965ZM42.16 5.34965V5.40465C41.0631 5.95481 40.116 6.76293 39.4 7.75965V5.35965C39.4 4.99965 39.42 4.76965 39.845 4.76965H41.66C42.16 4.76965 42.16 5.05465 42.16 5.34965ZM54.3149 14.0848V13.9548V8.16483C54.3149 5.7415 53.2449 4.52983 51.1049 4.52983C50.5093 4.53689 49.9275 4.71005 49.4249 5.02983C48.8711 5.37524 48.3765 5.80742 47.9599 6.30983C47.7714 5.76681 47.4049 5.30342 46.9199 4.99483C46.3684 4.69085 45.7441 4.54386 45.1149 4.56983C44.1895 4.57332 43.2912 4.88271 42.5599 5.44983C42.5458 5.46394 42.5095 5.49502 42.4552 5.54162L42.4552 5.54164C41.8931 6.02345 39.3949 8.16507 39.3949 10.3898V14.0948C39.3949 14.1042 39.3945 14.1157 39.3941 14.129L39.3941 14.129C39.3889 14.2799 39.3759 14.6598 39.8399 14.6598H41.7249C42.2671 14.6598 42.2595 14.3291 42.2555 14.1534V14.1533C42.2552 14.1395 42.2549 14.1265 42.2549 14.1148V8.11483C42.2793 8.08192 42.3057 8.04548 42.3341 8.00625C42.6723 7.53874 43.2974 6.67483 44.2799 6.67483C44.4503 6.65933 44.6217 6.68963 44.7764 6.76259C44.9311 6.83555 45.0635 6.94853 45.1599 7.08983C45.3737 7.51672 45.4671 7.99384 45.4299 8.46983V13.1448V14.1048C45.4299 14.1142 45.4295 14.1257 45.4291 14.139C45.4239 14.2899 45.4109 14.6698 45.8749 14.6698H47.7399C48.2821 14.6698 48.2745 14.3391 48.2705 14.1634V14.1633C48.2702 14.1495 48.2699 14.1365 48.2699 14.1248V13.9948V8.09483C48.3053 8.05065 48.3441 8.00009 48.3864 7.94497L48.3865 7.94485C48.7512 7.46965 49.3765 6.65483 50.2949 6.65483C50.4672 6.64073 50.6403 6.67155 50.7971 6.74428C50.954 6.81702 51.0893 6.92919 51.1899 7.06983C51.4072 7.49564 51.5023 7.97327 51.4649 8.44983V13.1248V14.0848C51.4649 14.0942 51.4645 14.1057 51.4641 14.119C51.4589 14.2699 51.4459 14.6498 51.9099 14.6498H53.7949C54.3333 14.6225 54.3221 14.3037 54.316 14.1303C54.3154 14.1137 54.3149 14.0984 54.3149 14.0848ZM64.707 11.7373C64.7081 11.7345 64.7091 11.7317 64.7102 11.7289L64.7052 11.7489C64.7059 11.745 64.7065 11.7412 64.707 11.7373ZM63.0349 13.8312C63.8004 13.3284 64.386 12.595 64.707 11.7373C64.713 11.6944 64.7102 11.6507 64.6985 11.6089C64.6858 11.5633 64.663 11.5212 64.6317 11.4856C64.6005 11.4501 64.5617 11.422 64.5181 11.4036C64.4746 11.3851 64.4274 11.3766 64.3802 11.3789H62.8052C62.6924 11.3765 62.5808 11.4022 62.4804 11.4537C62.38 11.5052 62.294 11.5809 62.2302 11.6739C62.068 12.0026 61.8152 12.278 61.5016 12.4676C61.1879 12.6572 60.8266 12.7531 60.4602 12.7439C59.0802 12.7439 58.3052 11.8589 58.2652 10.2439H64.3752C64.8602 10.2439 64.9552 9.90388 64.9552 9.51888C64.8402 6.50388 63.0402 4.63388 60.3402 4.63388C57.6402 4.63388 55.6402 6.69388 55.6402 9.63388C55.6402 12.5739 57.5602 14.5339 60.4402 14.5339C61.3578 14.5819 62.2669 14.3358 63.0349 13.8312ZM58.2602 8.60388C58.4302 7.29388 59.2052 6.49888 60.3502 6.49888C61.6352 6.49888 62.2552 7.45888 62.3602 8.60388H58.2602Z" fill="white"/>
</g>
<defs>
<clipPath id="clip0_177_4467">
<rect width="69" height="20" fill="white" transform="translate(0.5)"/>
</clipPath>
</defs>
</svg>
