<svg width="94" height="20" viewBox="0 0 94 20" fill="none" xmlns="http://www.w3.org/2000/svg">
<path d="M20.5583 2.13623H11.8083V17.8585H20.5583V2.13623Z" fill="#FF5F00"/>
<path d="M12.3638 10C12.3638 6.80556 13.8638 3.97223 16.1693 2.13889C14.4749 0.805559 12.336 0 10.0027 0C4.47491 0 0.00268555 4.47222 0.00268555 10C0.00268555 15.5278 4.47491 20 10.0027 20C12.336 20 14.4749 19.1945 16.1693 17.8611C13.8638 16.0556 12.3638 13.1944 12.3638 10Z" fill="#EB001B"/>
<path d="M32.3627 10C32.3627 15.5278 27.8905 20 22.3627 20C20.0294 20 17.8905 19.1945 16.196 17.8611C18.5294 16.0278 20.0016 13.1944 20.0016 10C20.0016 6.80556 18.5016 3.97223 16.196 2.13889C17.8905 0.805559 20.0294 0 22.3627 0C27.8905 0 32.3627 4.5 32.3627 10Z" fill="#F79E1B"/>
<path d="M60.0368 17.4261H64.3127L66.9854 1.00293H62.7092L60.0368 17.4261Z" fill="#203E7A"/>
<path d="M52.3634 12.2989L56.4398 1.00293H61.0416L54.2388 17.4266H49.7838L46.3776 4.34356C46.1798 3.58376 45.6855 2.94377 44.982 2.5953C44.194 2.20505 43.1762 1.71674 42.4792 1.38437C42.2865 1.29249 42.3532 1.00248 42.5667 1.00248H48.4145C50.2688 1.00248 50.4427 2.4812 50.4427 2.4812L51.8815 9.86689L52.3634 12.2989Z" fill="#203E7A"/>
<path fill-rule="evenodd" clip-rule="evenodd" d="M93.9973 17.4261H90.0712L89.5704 14.9866H84.1348L83.2434 17.4261H78.7862L85.1632 2.22641C85.1632 2.22641 85.5498 1.00249 87.137 1.00249H90.5742L93.9973 17.4261ZM87.6128 5.47072L85.3662 11.6167H88.8767L87.6128 5.47072Z" fill="#203E7A"/>
<path d="M79.7307 1.42555L79.1205 4.95233C77.2908 3.94411 73.1265 3.70557 73.1261 5.56254C73.1261 6.30025 74.0683 6.8076 75.2039 7.4191C76.9262 8.34649 79.0933 9.51342 79.0933 12.0867C79.0933 16.1987 74.6914 17.7095 71.7735 17.7095C68.8564 17.7095 66.9472 16.7821 66.9472 16.7821L67.5829 13.0945C69.3335 14.4999 74.6382 14.8992 74.6382 12.6706C74.6382 11.7341 73.594 11.1818 72.3831 10.5414C70.7123 9.65779 68.7242 8.60636 68.7242 6.14638C68.7242 1.63686 73.7631 0.709473 75.885 0.709473C77.8478 0.709473 79.7307 1.42555 79.7307 1.42555Z" fill="#203E7A"/>
</svg>
