<svg width="108" height="16" viewBox="0 0 108 16" fill="none" xmlns="http://www.w3.org/2000/svg">
<path fill-rule="evenodd" clip-rule="evenodd" d="M14.7036 8.50083C14.7036 11.0087 14.124 12.8775 12.9655 14.0953C11.807 15.3132 10.0174 15.9217 7.6044 15.9217C5.35008 15.9217 3.63937 15.3128 2.47331 14.0953C1.30691 12.8778 0.723877 11.0416 0.723877 8.58656V0.350036C0.724562 0.156889 0.882574 0.000677708 1.0776 0H5.16568C5.36105 0.000677708 5.51906 0.156889 5.51974 0.350036V8.7665C5.51974 9.76883 5.70723 10.5404 6.08907 11.0846C6.77629 11.9853 8.07192 12.1645 8.98297 11.4851C9.11973 11.3831 9.24312 11.2649 9.35006 11.1327C9.72333 10.6221 9.9091 9.86947 9.90807 8.87493V7.29892H14.7039V8.50083H14.7036Z" fill="white"/>
<path fill-rule="evenodd" clip-rule="evenodd" d="M14.3287 6.40753H9.84961V0.367963C9.8503 0.164749 10.0179 0.000340391 10.2247 0H10.895C10.8964 2.06209 12.6008 3.73307 14.7028 3.73307H14.7038V6.40753H14.3287Z" fill="white"/>
<path fill-rule="evenodd" clip-rule="evenodd" d="M11.598 0H14.2962C14.5216 0.000660113 14.704 0.160077 14.7043 0.356791V2.71835C12.9886 2.71835 11.5977 1.50242 11.5977 0.00264045V0H11.598Z" fill="#F4821F"/>
<path fill-rule="evenodd" clip-rule="evenodd" d="M30.021 13.6543C33.0869 13.6543 34.5665 11.9475 34.5665 9.44081V3.40026H32.3724V9.38062C32.3724 10.6854 31.3142 11.7436 30.0094 11.7436C28.7046 11.7436 27.6464 10.6854 27.6464 9.38062V3.40026H25.4717V9.46022C25.4717 11.9359 26.9512 13.6581 30.0171 13.6581L30.021 13.6543ZM47.8087 13.4717V11.5844H42.9468L47.7039 5.1167V3.39443H40.1372V5.28368H44.8943L40.1372 11.732V13.464L47.8087 13.4717ZM58.0588 13.6543C59.8199 13.695 61.4529 12.7358 62.2723 11.1767L60.4238 10.2854C59.9655 11.1747 59.053 11.7378 58.053 11.7495C56.2259 11.6582 54.8182 10.1049 54.9094 8.27775C54.9929 6.57684 56.3521 5.21767 58.053 5.13418C59.051 5.15165 59.9617 5.71279 60.4238 6.5982L62.2723 5.69144C61.4529 4.13421 59.818 3.17891 58.0588 3.22939C55.1813 3.14396 52.7794 5.40601 52.692 8.28357C52.6066 11.1611 54.8686 13.563 57.7462 13.6504C57.8511 13.6562 57.9559 13.6562 58.0588 13.6543ZM76.796 13.4717L72.9146 3.39832H70.2273L66.3304 13.4717H68.7769L69.4118 11.765H73.732L74.3514 13.4717H76.796ZM73.1418 9.87769H70.0001L71.5709 5.54192L73.1418 9.87769ZM91.277 15.9998L87.5801 9.63885C88.9431 9.31071 89.8732 8.04863 89.7858 6.64868C89.8518 4.91671 88.5024 3.46045 86.7704 3.39443C86.6481 3.39055 86.5257 3.39249 86.4034 3.40219H81.689V13.4756H83.8346V9.89516H85.4054L88.815 15.9978L91.277 15.9998ZM86.085 8.00785H83.8346V5.28951H86.0772C86.8286 5.2099 87.5004 5.75551 87.5801 6.505C87.6597 7.25643 87.1141 7.92825 86.3646 8.00785C86.2694 8.01756 86.1743 8.01756 86.0791 8.00785H86.085ZM99.3252 13.4737C102.482 13.4737 104.673 11.4796 104.673 8.44473C104.673 5.40989 102.479 3.40026 99.3252 3.40026H95.3526V13.4737H99.3252ZM99.3252 11.5864H97.4981V5.28951H99.3252C100.948 5.16912 102.362 6.3885 102.482 8.01174C102.492 8.15543 102.492 8.30105 102.482 8.44473C102.552 10.1087 101.261 11.5145 99.5971 11.5844C99.5058 11.5883 99.4126 11.5883 99.3194 11.5825L99.3252 11.5864Z" fill="white"/>
<path fill-rule="evenodd" clip-rule="evenodd" d="M107.276 3.20979V3.23308C107.276 4.26994 106.438 5.10875 105.403 5.11069C104.366 5.11069 103.527 4.27189 103.525 3.23697C103.525 2.20012 104.364 1.36132 105.399 1.35938C105.399 1.35938 105.399 1.35938 105.401 1.35938H107.275L107.276 3.20979Z" fill="white"/>
</svg>
